<?xml version="1.0"?><svg xmlns="http://www.w3.org/2000/svg"  viewBox="0 0 24 24" width="24px" height="24px">    <path d="M 12 2 C 11.172 2 10.5 2.672 10.5 3.5 L 10.5 4.1953125 C 7.9131836 4.862095 6 7.2048001 6 10 L 6 16 L 4.4648438 17.15625 L 4.4628906 17.15625 A 1 1 0 0 0 4 18 A 1 1 0 0 0 5 19 L 12 19 L 19 19 A 1 1 0 0 0 20 18 A 1 1 0 0 0 19.537109 17.15625 L 18 16 L 18 10 C 18 7.2048001 16.086816 4.862095 13.5 4.1953125 L 13.5 3.5 C 13.5 2.672 12.828 2 12 2 z M 10 20 C 10 21.1 10.9 22 12 22 C 13.1 22 14 21.1 14 20 L 10 20 z"/></svg>